<svg width="60" height="30" viewBox="0 0 60 30" fill="none" xmlns="http://www.w3.org/2000/svg">
<path d="M11.1914 1.5L9.82422 28.1016L1.58203 28.5312L0.800781 2.04688L11.1914 1.5ZM35.5273 22.0469C35.5273 23.1276 35.3255 24.0586 34.9219 24.8398C34.5312 25.6211 34.0039 26.2852 33.3398 26.832C32.6758 27.3789 31.9076 27.8281 31.0352 28.1797C30.1758 28.5182 29.2773 28.7852 28.3398 28.9805C27.4023 29.1758 26.4583 29.306 25.5078 29.3711C24.5703 29.4362 23.6914 29.4688 22.8711 29.4688C22.0638 29.4688 21.224 29.4362 20.3516 29.3711C19.4922 29.319 18.6328 29.2214 17.7734 29.0781C16.9141 28.9349 16.0677 28.7461 15.2344 28.5117C14.401 28.2643 13.6133 27.9583 12.8711 27.5938L12.832 2.4375C13.5612 2.13802 14.3359 1.87109 15.1562 1.63672C15.9766 1.38932 16.8099 1.1875 17.6562 1.03125C18.5156 0.861979 19.3685 0.738281 20.2148 0.660156C21.0612 0.56901 21.8815 0.523438 22.6758 0.523438C23.6003 0.523438 24.5312 0.582031 25.4688 0.699219C26.4193 0.816406 27.3307 1.01172 28.2031 1.28516C29.0755 1.55859 29.8893 1.91667 30.6445 2.35938C31.3997 2.78906 32.0573 3.32292 32.6172 3.96094C33.1901 4.59896 33.6328 5.34115 33.9453 6.1875C34.2708 7.03385 34.4336 8.01042 34.4336 9.11719C34.4336 9.84635 34.3294 10.5299 34.1211 11.168C33.9128 11.806 33.6133 12.3789 33.2227 12.8867C32.832 13.3945 32.3568 13.8307 31.7969 14.1953C31.237 14.5469 30.6055 14.8073 29.9023 14.9766C30.7487 15.1979 31.5169 15.5234 32.207 15.9531C32.9102 16.3828 33.5026 16.9036 33.9844 17.5156C34.4792 18.1276 34.8568 18.8177 35.1172 19.5859C35.3906 20.3542 35.5273 21.1745 35.5273 22.0469ZM25.6055 10.9141C25.6055 10.5365 25.5273 10.2174 25.3711 9.95703C25.2148 9.68359 25.0195 9.46224 24.7852 9.29297C24.5638 9.1237 24.3164 9 24.043 8.92188C23.7826 8.84375 23.5482 8.80469 23.3398 8.80469C23.0794 8.80469 22.8255 8.84375 22.5781 8.92188C22.3307 9 22.0898 9.09115 21.8555 9.19531L21.7383 13.5312C22.0378 13.5312 22.4089 13.5052 22.8516 13.4531C23.2943 13.401 23.7174 13.2904 24.1211 13.1211C24.5378 12.9388 24.8893 12.6784 25.1758 12.3398C25.4622 11.9883 25.6055 11.513 25.6055 10.9141ZM22.832 17.2812C22.4544 17.2812 22.0898 17.3203 21.7383 17.3984L21.6602 21.8516C21.8555 21.8906 22.0443 21.9297 22.2266 21.9688C22.4219 21.9948 22.6107 22.0078 22.793 22.0078C23.0664 22.0078 23.3659 21.9818 23.6914 21.9297C24.0169 21.8646 24.3229 21.7474 24.6094 21.5781C24.8958 21.3958 25.1302 21.1549 25.3125 20.8555C25.5078 20.556 25.6055 20.1589 25.6055 19.6641C25.6055 19.1693 25.5078 18.7656 25.3125 18.4531C25.1302 18.1406 24.9023 17.8997 24.6289 17.7305C24.3555 17.5482 24.056 17.431 23.7305 17.3789C23.4049 17.3138 23.1055 17.2812 22.832 17.2812ZM59.3164 22.0469C59.3164 23.1276 59.1146 24.0586 58.7109 24.8398C58.3203 25.6211 57.793 26.2852 57.1289 26.832C56.4648 27.3789 55.6966 27.8281 54.8242 28.1797C53.9648 28.5182 53.0664 28.7852 52.1289 28.9805C51.1914 29.1758 50.2474 29.306 49.2969 29.3711C48.3594 29.4362 47.4805 29.4688 46.6602 29.4688C45.8529 29.4688 45.013 29.4362 44.1406 29.3711C43.2812 29.319 42.4219 29.2214 41.5625 29.0781C40.7031 28.9349 39.8568 28.7461 39.0234 28.5117C38.1901 28.2643 37.4023 27.9583 36.6602 27.5938L36.6211 2.4375C37.3503 2.13802 38.125 1.87109 38.9453 1.63672C39.7656 1.38932 40.599 1.1875 41.4453 1.03125C42.3047 0.861979 43.1576 0.738281 44.0039 0.660156C44.8503 0.56901 45.6706 0.523438 46.4648 0.523438C47.3893 0.523438 48.3203 0.582031 49.2578 0.699219C50.2083 0.816406 51.1198 1.01172 51.9922 1.28516C52.8646 1.55859 53.6784 1.91667 54.4336 2.35938C55.1888 2.78906 55.8464 3.32292 56.4062 3.96094C56.9792 4.59896 57.4219 5.34115 57.7344 6.1875C58.0599 7.03385 58.2227 8.01042 58.2227 9.11719C58.2227 9.84635 58.1185 10.5299 57.9102 11.168C57.7018 11.806 57.4023 12.3789 57.0117 12.8867C56.6211 13.3945 56.1458 13.8307 55.5859 14.1953C55.026 14.5469 54.3945 14.8073 53.6914 14.9766C54.5378 15.1979 55.306 15.5234 55.9961 15.9531C56.6992 16.3828 57.2917 16.9036 57.7734 17.5156C58.2682 18.1276 58.6458 18.8177 58.9062 19.5859C59.1797 20.3542 59.3164 21.1745 59.3164 22.0469ZM49.3945 10.9141C49.3945 10.5365 49.3164 10.2174 49.1602 9.95703C49.0039 9.68359 48.8086 9.46224 48.5742 9.29297C48.3529 9.1237 48.1055 9 47.832 8.92188C47.5716 8.84375 47.3372 8.80469 47.1289 8.80469C46.8685 8.80469 46.6146 8.84375 46.3672 8.92188C46.1198 9 45.8789 9.09115 45.6445 9.19531L45.5273 13.5312C45.8268 13.5312 46.1979 13.5052 46.6406 13.4531C47.0833 13.401 47.5065 13.2904 47.9102 13.1211C48.3268 12.9388 48.6784 12.6784 48.9648 12.3398C49.2513 11.9883 49.3945 11.513 49.3945 10.9141ZM46.6211 17.2812C46.2435 17.2812 45.8789 17.3203 45.5273 17.3984L45.4492 21.8516C45.6445 21.8906 45.8333 21.9297 46.0156 21.9688C46.2109 21.9948 46.3997 22.0078 46.582 22.0078C46.8555 22.0078 47.1549 21.9818 47.4805 21.9297C47.806 21.8646 48.112 21.7474 48.3984 21.5781C48.6849 21.3958 48.9193 21.1549 49.1016 20.8555C49.2969 20.556 49.3945 20.1589 49.3945 19.6641C49.3945 19.1693 49.2969 18.7656 49.1016 18.4531C48.9193 18.1406 48.6914 17.8997 48.418 17.7305C48.1445 17.5482 47.8451 17.431 47.5195 17.3789C47.194 17.3138 46.8945 17.2812 46.6211 17.2812Z" fill="#C94A65"/>
</svg>
